<svg width="24" height="25" viewBox="0 0 24 25" fill="none" xmlns="http://www.w3.org/2000/svg">
<path d="M12 0.553223C5.376 0.553223 0 5.93279 0 12.5612C0 19.1896 5.376 24.5692 12 24.5692C18.624 24.5692 24 19.1896 24 12.5612C24 5.93279 18.624 0.553223 12 0.553223ZM12 4.15561C13.992 4.15561 15.6 5.76468 15.6 7.758C15.6 9.75132 13.992 11.3604 12 11.3604C10.008 11.3604 8.4 9.75132 8.4 7.758C8.4 5.76468 10.008 4.15561 12 4.15561ZM12 21.2069C10.5742 21.2069 9.17062 20.8539 7.91433 20.1792C6.65805 19.5046 5.58813 18.5293 4.8 17.3404C4.836 14.9508 9.6 13.6419 12 13.6419C14.388 13.6419 19.164 14.9508 19.2 17.3404C18.4119 18.5293 17.342 19.5046 16.0857 20.1792C14.8294 20.8539 13.4258 21.2069 12 21.2069Z" fill="black"/>
</svg>
