<svg width="255" height="78" viewBox="0 0 255 78" fill="none" xmlns="http://www.w3.org/2000/svg">
<path d="M56.1645 0H16.8355C7.53752 0 0 7.53752 0 16.8355V56.1645C0 65.4625 7.53752 73 16.8355 73H56.1645C65.4625 73 73 65.4625 73 56.1645V16.8355C73 7.53752 65.4625 0 56.1645 0Z" fill="#53B175"/>
<path d="M42.5115 47.7355L39.1618 49.8958C38.4995 50.3215 37.6953 50.4672 36.9258 50.3009C36.1562 50.1345 35.484 49.6698 35.0566 49.0085L30.7714 42.3605C30.4956 41.9331 30.1147 41.5837 29.6651 41.3458C29.2155 41.1078 28.7124 40.9893 28.2039 41.0016C27.6954 41.0138 27.1986 41.1565 26.761 41.4158C26.3235 41.6751 25.9598 42.0425 25.705 42.4827C25.4446 42.9343 25.0697 43.3094 24.6183 43.5702C24.1668 43.8309 23.6546 43.9681 23.1332 43.9679H13.399L22.0787 28.9069L24.837 24.133L25.226 23.4579C25.4799 23.0168 25.8431 22.6485 26.2806 22.3883C26.7181 22.1281 27.2151 21.9848 27.724 21.9722C28.2328 21.9596 28.7363 22.0781 29.1861 22.3164C29.6359 22.5546 30.0169 22.9045 30.2924 23.3325L33.7032 28.624L43.386 43.6432C43.8088 44.3029 43.9542 45.1029 43.7905 45.8692C43.6267 46.6355 43.1671 47.3062 42.5115 47.7355Z" fill="white"/>
<path d="M52.9273 51.0433C56.6131 51.0433 59.601 48.0554 59.601 44.3696C59.601 40.6837 56.6131 37.6958 52.9273 37.6958C49.2414 37.6958 46.2535 40.6837 46.2535 44.3696C46.2535 48.0554 49.2414 51.0433 52.9273 51.0433Z" fill="white"/>
<path d="M117.482 56.4794H130.322L113.402 15.6794H101.582L84.6617 56.4794H97.5617L99.6617 50.6594H115.322L117.482 56.4794ZM103.202 40.9394L107.462 29.2394L111.782 40.9394H103.202ZM151.007 26.8994L144.467 42.8594L137.387 26.8994H125.207L139.307 55.3394L133.127 70.3394H145.307L163.127 26.8994H151.007ZM184.881 26.9594V28.1594C182.781 26.8994 180.381 26.1194 177.261 26.1194C169.401 26.1194 162.621 32.5394 162.621 41.5994C162.621 50.6594 169.401 57.3194 177.261 57.3194C180.381 57.3194 182.781 56.4194 184.881 55.0994V56.4794H196.521V26.9594H184.881ZM179.901 47.8394C176.481 47.8394 173.781 45.3194 173.781 41.5994C173.781 37.8194 176.481 35.2994 179.901 35.2994C181.581 35.2994 183.261 35.6594 184.881 37.1594V45.9794C183.261 47.4794 181.581 47.8394 179.901 47.8394ZM202.26 13.8794V56.4794H213.84V13.8794H202.26ZM234.966 26.1194C225.186 26.1194 218.226 32.6594 218.226 41.7794C218.226 50.8394 225.186 57.3194 234.966 57.3194C244.686 57.3194 251.706 50.8394 251.706 41.7794C251.706 32.6594 244.686 26.1194 234.966 26.1194ZM234.966 48.2594C231.246 48.2594 228.546 45.5594 228.546 41.7794C228.546 37.9394 231.246 35.1794 234.966 35.1794C238.686 35.1794 241.326 37.9394 241.326 41.7794C241.326 45.5594 238.686 48.2594 234.966 48.2594Z" fill="#53B175"/>
<path d="M179 24C181.761 24 184 21.7614 184 19C184 16.2386 181.761 14 179 14C176.239 14 174 16.2386 174 19C174 21.7614 176.239 24 179 24Z" fill="#53B175"/>
<path d="M107.409 12.5496C109.894 12.5496 111.909 10.5348 111.909 8.04956C111.909 5.56428 109.894 3.54956 107.409 3.54956C104.923 3.54956 102.909 5.56428 102.909 8.04956C102.909 10.5348 104.923 12.5496 107.409 12.5496Z" fill="#53B175"/>
</svg>
