<svg width="256" height="76" viewBox="0 0 256 76" fill="none" xmlns="http://www.w3.org/2000/svg">
<path d="M56.5155 0H16.9407C7.58463 0 0 7.31424 0 16.3368V54.5008C0 63.5233 7.58463 70.8376 16.9407 70.8376H56.5155C65.8716 70.8376 73.4563 63.5233 73.4563 54.5008V16.3368C73.4563 7.31424 65.8716 0 56.5155 0Z" fill="#53B175"/>
<path d="M42.7779 46.3214L39.4072 48.4177C38.7408 48.8308 37.9316 48.9722 37.1572 48.8108C36.3828 48.6494 35.7064 48.1984 35.2764 47.5568L30.9643 41.1056C30.6868 40.6909 30.3035 40.3519 29.8512 40.121C29.3988 39.8901 28.8925 39.7751 28.3809 39.787C27.8692 39.7989 27.3693 39.9373 26.929 40.1889C26.4887 40.4406 26.1228 40.797 25.8663 41.2242C25.6043 41.6625 25.2271 42.0265 24.7728 42.2795C24.3185 42.5325 23.8031 42.6656 23.2784 42.6654H13.4834L22.2174 28.0505L24.9929 23.4181L25.3843 22.763C25.6399 22.335 26.0053 21.9775 26.4455 21.725C26.8857 21.4726 27.3859 21.3335 27.8979 21.3213C28.4099 21.3091 28.9166 21.4241 29.3692 21.6553C29.8218 21.8864 30.2052 22.226 30.4824 22.6413L33.9145 27.776L43.6578 42.3503C44.0833 42.9905 44.2296 43.7668 44.0648 44.5104C43.9 45.254 43.4376 45.9049 42.7779 46.3214Z" fill="white"/>
<path d="M53.2585 49.5314C56.9673 49.5314 59.9739 46.6319 59.9739 43.0553C59.9739 39.4787 56.9673 36.5792 53.2585 36.5792C49.5496 36.5792 46.543 39.4787 46.543 43.0553C46.543 46.6319 49.5496 49.5314 53.2585 49.5314Z" fill="white"/>
<path d="M118.009 56.2579H130.849L113.929 15.4579H102.109L85.1891 56.2579H98.0891L100.189 50.4379H115.849L118.009 56.2579ZM103.729 40.7179L107.989 29.0179L112.309 40.7179H103.729ZM151.535 26.6779L144.995 42.6379L137.915 26.6779H125.735L139.835 55.1179L133.655 70.1179H145.835L163.655 26.6779H151.535ZM185.408 26.7379V27.9379C183.308 26.6779 180.908 25.8979 177.788 25.8979C169.928 25.8979 163.148 32.3179 163.148 41.3779C163.148 50.4379 169.928 57.0979 177.788 57.0979C180.908 57.0979 183.308 56.1979 185.408 54.8779V56.2579H197.048V26.7379H185.408ZM180.428 47.6179C177.008 47.6179 174.308 45.0979 174.308 41.3779C174.308 37.5979 177.008 35.0779 180.428 35.0779C182.108 35.0779 183.788 35.4379 185.408 36.9379V45.7579C183.788 47.2579 182.108 47.6179 180.428 47.6179ZM202.787 13.6579V56.2579H214.367V13.6579H202.787ZM235.494 25.8979C225.714 25.8979 218.754 32.4379 218.754 41.5579C218.754 50.6179 225.714 57.0979 235.494 57.0979C245.214 57.0979 252.234 50.6179 252.234 41.5579C252.234 32.4379 245.214 25.8979 235.494 25.8979ZM235.494 48.0379C231.774 48.0379 229.074 45.3379 229.074 41.5579C229.074 37.7179 231.774 34.9579 235.494 34.9579C239.214 34.9579 241.854 37.7179 241.854 41.5579C241.854 45.3379 239.214 48.0379 235.494 48.0379Z" fill="#53B175"/>
<path d="M180.119 23.2891C182.898 23.2891 185.15 21.1168 185.15 18.4372C185.15 15.7576 182.898 13.5853 180.119 13.5853C177.34 13.5853 175.088 15.7576 175.088 18.4372C175.088 21.1168 177.34 23.2891 180.119 23.2891Z" fill="#53B175"/>
<path d="M108.08 12.1778C110.581 12.1778 112.608 10.2228 112.608 7.8111C112.608 5.39944 110.581 3.4444 108.08 3.4444C105.579 3.4444 103.552 5.39944 103.552 7.8111C103.552 10.2228 105.579 12.1778 108.08 12.1778Z" fill="#53B175"/>
</svg>
