<svg width="252" height="77" viewBox="0 0 252 77" fill="none" xmlns="http://www.w3.org/2000/svg">
<path d="M54.1498 0H16.2316C7.26714 0 0 7.05187 0 15.7508V52.5458C0 61.2447 7.26714 68.2966 16.2316 68.2966H54.1498C63.1143 68.2966 70.3814 61.2447 70.3814 52.5458V15.7508C70.3814 7.05187 63.1143 0 54.1498 0Z" fill="white"/>
<path d="M40.9867 44.6601L37.7571 46.6812C37.1185 47.0795 36.3432 47.2158 35.6012 47.0602C34.8593 46.9046 34.2112 46.4697 33.7991 45.8511L29.6676 39.6314C29.4017 39.2316 29.0345 38.9047 28.601 38.6821C28.1676 38.4594 27.6825 38.3486 27.1923 38.36C26.702 38.3715 26.223 38.5049 25.8011 38.7476C25.3793 38.9902 25.0287 39.3339 24.7829 39.7457C24.5319 40.1683 24.1705 40.5192 23.7352 40.7631C23.2999 41.0071 22.8061 41.1354 22.3034 41.1352H12.9184L21.2868 27.0446L23.9461 22.5783L24.3211 21.9467C24.566 21.534 24.9162 21.1894 25.3379 20.946C25.7597 20.7026 26.2389 20.5685 26.7295 20.5568C27.2201 20.545 27.7056 20.6559 28.1392 20.8787C28.5729 21.1016 28.9402 21.429 29.2058 21.8294L32.4943 26.7799L41.8297 40.8314C42.2374 41.4487 42.3776 42.1971 42.2197 42.914C42.0618 43.631 41.6187 44.2585 40.9867 44.6601Z" fill="#53B175"/>
<path d="M51.0286 47.7546C54.5822 47.7546 57.463 44.9592 57.463 41.5109C57.463 38.0625 54.5822 35.2671 51.0286 35.2671C47.475 35.2671 44.5942 38.0625 44.5942 41.5109C44.5942 44.9592 47.475 47.7546 51.0286 47.7546Z" fill="#53B175"/>
<path d="M114.458 55.9973H127.298L110.378 15.1973H98.5578L81.6378 55.9973H94.5378L96.6378 50.1773H112.298L114.458 55.9973ZM100.178 40.4573L104.438 28.7573L108.758 40.4573H100.178ZM147.983 26.4173L141.443 42.3773L134.363 26.4173H122.183L136.283 54.8573L130.103 69.8573H142.283L160.103 26.4173H147.983ZM181.857 26.4773V27.6773C179.757 26.4173 177.357 25.6373 174.237 25.6373C166.377 25.6373 159.597 32.0573 159.597 41.1173C159.597 50.1773 166.377 56.8373 174.237 56.8373C177.357 56.8373 179.757 55.9373 181.857 54.6173V55.9973H193.497V26.4773H181.857ZM176.877 47.3573C173.457 47.3573 170.757 44.8373 170.757 41.1173C170.757 37.3373 173.457 34.8173 176.877 34.8173C178.557 34.8173 180.237 35.1773 181.857 36.6773V45.4973C180.237 46.9973 178.557 47.3573 176.877 47.3573ZM199.236 13.3973V55.9973H210.816V13.3973H199.236ZM231.942 25.6373C222.162 25.6373 215.202 32.1773 215.202 41.2973C215.202 50.3573 222.162 56.8373 231.942 56.8373C241.662 56.8373 248.682 50.3573 248.682 41.2973C248.682 32.1773 241.662 25.6373 231.942 25.6373ZM231.942 47.7773C228.222 47.7773 225.522 45.0773 225.522 41.2973C225.522 37.4573 228.222 34.6973 231.942 34.6973C235.662 34.6973 238.302 37.4573 238.302 41.2973C238.302 45.0773 235.662 47.7773 231.942 47.7773Z" fill="white"/>
<path d="M174.579 22.4536C177.241 22.4536 179.4 20.3592 179.4 17.7757C179.4 15.1922 177.241 13.0979 174.579 13.0979C171.917 13.0979 169.758 15.1922 169.758 17.7757C169.758 20.3592 171.917 22.4536 174.579 22.4536Z" fill="#FCFCFC"/>
<path d="M103.556 11.7407C105.952 11.7407 107.894 9.85577 107.894 7.53062C107.894 5.20547 105.952 3.32056 103.556 3.32056C101.16 3.32056 99.2173 5.20547 99.2173 7.53062C99.2173 9.85577 101.16 11.7407 103.556 11.7407Z" fill="#FCFCFC"/>
</svg>
