<svg width="13" height="14" viewBox="0 0 13 14" fill="none" xmlns="http://www.w3.org/2000/svg">
<path d="M12.2568 9.24483L10.9969 7.97791V4.85609C11.0137 3.69684 10.6104 2.57067 9.86165 1.68552C9.11288 0.800374 8.06913 0.216029 6.92314 0.0403855C6.25805 -0.0472023 5.58193 0.00805784 4.93988 0.202479C4.29784 0.396899 3.70464 0.726009 3.19987 1.16785C2.6951 1.60969 2.29036 2.1541 2.01266 2.76476C1.73496 3.37541 1.59069 4.03827 1.58946 4.7091V7.97791L0.329537 9.24483C0.171281 9.40573 0.0639616 9.6097 0.0209959 9.83125C-0.0219698 10.0528 0.00132433 10.2821 0.0879661 10.4905C0.174608 10.6989 0.320753 10.8771 0.508132 11.0029C0.695511 11.1287 0.915809 11.1964 1.14149 11.1977H3.49335V11.4357C3.52604 12.1463 3.83909 12.815 4.3639 13.2952C4.88871 13.7754 5.58248 14.0279 6.29318 13.9975C7.00388 14.0279 7.69764 13.7754 8.22245 13.2952C8.74726 12.815 9.06031 12.1463 9.09301 11.4357V11.1977H11.4449C11.6705 11.1964 11.8908 11.1287 12.0782 11.0029C12.2656 10.8771 12.4117 10.6989 12.4984 10.4905C12.585 10.2821 12.6083 10.0528 12.5654 9.83125C12.5224 9.6097 12.4151 9.40573 12.2568 9.24483ZM7.69309 11.4357C7.65427 11.7724 7.48706 12.0811 7.22627 12.2975C6.96549 12.514 6.63125 12.6215 6.29318 12.5976C5.95511 12.6215 5.62087 12.514 5.36008 12.2975C5.0993 12.0811 4.93208 11.7724 4.89326 11.4357V11.1977H7.69309V11.4357ZM1.75045 9.7978L2.5764 8.97185C2.70741 8.84161 2.81135 8.68674 2.88223 8.51615C2.95311 8.34556 2.98952 8.16263 2.98938 7.97791V4.7091C2.98976 4.23691 3.09114 3.77027 3.28671 3.34048C3.48229 2.9107 3.76754 2.52772 4.12331 2.21725C4.47428 1.89925 4.89016 1.66131 5.34217 1.51991C5.79418 1.3785 6.27152 1.33701 6.74115 1.3983C7.55064 1.52974 8.2854 1.94918 8.81015 2.5794C9.33491 3.20962 9.61433 4.00819 9.59698 4.8281V7.97791C9.59591 8.16214 9.63123 8.34478 9.70089 8.51534C9.77056 8.68591 9.87321 8.84104 10.003 8.97185L10.8359 9.7978H1.75045Z" fill="#181725"/>
</svg>
