<svg width="20" height="21" viewBox="0 0 20 21" fill="none" xmlns="http://www.w3.org/2000/svg">
<path d="M0.00142809 1.26828C0.00142809 1.07877 0.0766632 0.897013 0.210582 0.763004C0.344501 0.628996 0.526135 0.553711 0.715525 0.553711H1.34107C2.37937 0.553711 2.97636 1.2297 3.32198 1.90425C3.55763 2.36587 3.72759 2.92895 3.86898 3.41772H18.5722C18.7929 3.41779 19.0106 3.46902 19.2081 3.56741C19.4057 3.6658 19.5778 3.80867 19.7109 3.9848C19.844 4.16093 19.9345 4.36553 19.9754 4.58254C20.0162 4.79956 20.0062 5.02309 19.9462 5.23559L17.8096 12.7743C17.6396 13.3725 17.2794 13.8988 16.7835 14.2735C16.2876 14.6483 15.6831 14.851 15.0617 14.8509H7.80793C7.18135 14.8511 6.57208 14.6451 6.07399 14.2647C5.5759 13.8843 5.21663 13.3506 5.05152 12.7458L4.13462 9.38012C4.12936 9.36503 4.1246 9.34978 4.12034 9.33439L2.64787 4.33666L2.50505 3.85504C2.36223 3.36055 2.23655 2.92324 2.04803 2.55594C1.82095 2.11291 1.61243 1.98429 1.33965 1.98429H0.714097C0.524707 1.98429 0.343073 1.909 0.209154 1.77499C0.0752348 1.64098 0 1.45923 0 1.26971L0.00142809 1.26828ZM5.49712 8.94852L6.42973 12.3728C6.51241 12.675 6.69211 12.9417 6.94114 13.1318C7.19017 13.3219 7.49474 13.4248 7.80793 13.4246H15.0632C15.3737 13.4243 15.6757 13.3227 15.9234 13.1352C16.171 12.9477 16.3509 12.6846 16.4357 12.3856L18.5722 4.84687H4.29029L5.49712 8.94709V8.94852Z" fill="#181725"/>
<path d="M10.0031 18.4238C10.0031 18.9923 9.77738 19.5376 9.37562 19.9396C8.97386 20.3416 8.42896 20.5675 7.86079 20.5675C7.29262 20.5675 6.74772 20.3416 6.34597 19.9396C5.94421 19.5376 5.71851 18.9923 5.71851 18.4238C5.71851 17.8552 5.94421 17.3099 6.34597 16.9079C6.74772 16.5059 7.29262 16.28 7.86079 16.28C8.42896 16.28 8.97386 16.5059 9.37562 16.9079C9.77738 17.3099 10.0031 17.8552 10.0031 18.4238ZM8.57489 18.4238C8.57489 18.2342 8.49966 18.0525 8.36574 17.9185C8.23182 17.7845 8.05018 17.7092 7.86079 17.7092C7.6714 17.7092 7.48977 17.7845 7.35585 17.9185C7.22193 18.0525 7.1467 18.2342 7.1467 18.4238C7.1467 18.6133 7.22193 18.795 7.35585 18.9291C7.48977 19.0631 7.6714 19.1383 7.86079 19.1383C8.05018 19.1383 8.23182 19.0631 8.36574 18.9291C8.49966 18.795 8.57489 18.6133 8.57489 18.4238Z" fill="#181725"/>
<path d="M17.144 18.4238C17.144 18.9923 16.9183 19.5376 16.5166 19.9396C16.1148 20.3416 15.5699 20.5675 15.0018 20.5675C14.4336 20.5675 13.8887 20.3416 13.4869 19.9396C13.0852 19.5376 12.8595 18.9923 12.8595 18.4238C12.8595 17.8552 13.0852 17.3099 13.4869 16.9079C13.8887 16.5059 14.4336 16.28 15.0018 16.28C15.5699 16.28 16.1148 16.5059 16.5166 16.9079C16.9183 17.3099 17.144 17.8552 17.144 18.4238ZM15.7159 18.4238C15.7159 18.2342 15.6406 18.0525 15.5067 17.9185C15.3728 17.7845 15.1911 17.7092 15.0018 17.7092C14.8124 17.7092 14.6307 17.7845 14.4968 17.9185C14.3629 18.0525 14.2877 18.2342 14.2877 18.4238C14.2877 18.6133 14.3629 18.795 14.4968 18.9291C14.6307 19.0631 14.8124 19.1383 15.0018 19.1383C15.1911 19.1383 15.3728 19.0631 15.5067 18.9291C15.6406 18.795 15.7159 18.6133 15.7159 18.4238Z" fill="#181725"/>
</svg>
