<svg width="27" height="28" viewBox="0 0 27 28" fill="none" xmlns="http://www.w3.org/2000/svg">
<path d="M0.192944 1.40101C0.192944 1.14832 0.293258 0.905978 0.471817 0.7273C0.650375 0.548622 0.892553 0.448242 1.14507 0.448242H1.97914C3.36353 0.448242 4.15951 1.34956 4.62034 2.24897C4.93455 2.86445 5.16115 3.61523 5.34968 4.26692H24.954C25.2483 4.26701 25.5385 4.33533 25.8019 4.46651C26.0653 4.5977 26.2948 4.78819 26.4723 5.02302C26.6497 5.25786 26.7704 5.53066 26.8249 5.82002C26.8793 6.10938 26.8659 6.40742 26.7859 6.69075L23.9371 16.7424C23.7105 17.5399 23.2302 18.2417 22.569 18.7413C21.9079 19.241 21.1019 19.5113 20.2733 19.5111H10.6016C9.76617 19.5114 8.95381 19.2368 8.28969 18.7296C7.62557 18.2224 7.14654 17.5108 6.9264 16.7043L5.70387 12.2168C5.69686 12.1967 5.69051 12.1763 5.68482 12.1558L3.72153 5.49218L3.53111 4.85001C3.34068 4.1907 3.17311 3.60761 2.92175 3.11789C2.61897 2.52717 2.34095 2.35568 1.97723 2.35568H1.14317C0.890649 2.35568 0.648471 2.2553 0.469912 2.07662C0.291353 1.89794 0.19104 1.6556 0.19104 1.40291L0.192944 1.40101ZM7.52053 11.6413L8.76401 16.207C8.87426 16.61 9.11385 16.9656 9.44589 17.219C9.77794 17.4725 10.184 17.6096 10.6016 17.6094H20.2753C20.6893 17.609 21.092 17.4735 21.4222 17.2236C21.7524 16.9736 21.9922 16.6227 22.1052 16.2241L24.954 6.17245H5.91143L7.52053 11.6394V11.6413Z" fill="white"/>
<path d="M13.5285 24.2748C13.5285 25.0328 13.2275 25.7599 12.6918 26.2959C12.1562 26.8319 11.4296 27.1331 10.6721 27.1331C9.91452 27.1331 9.18799 26.8319 8.65232 26.2959C8.11664 25.7599 7.8157 25.0328 7.8157 24.2748C7.8157 23.5167 8.11664 22.7897 8.65232 22.2537C9.18799 21.7176 9.91452 21.4165 10.6721 21.4165C11.4296 21.4165 12.1562 21.7176 12.6918 22.2537C13.2275 22.7897 13.5285 23.5167 13.5285 24.2748ZM11.6242 24.2748C11.6242 24.0221 11.5239 23.7798 11.3453 23.6011C11.1668 23.4224 10.9246 23.322 10.6721 23.322C10.4196 23.322 10.1774 23.4224 9.99883 23.6011C9.82027 23.7798 9.71996 24.0221 9.71996 24.2748C9.71996 24.5275 9.82027 24.7698 9.99883 24.9485C10.1774 25.1272 10.4196 25.2275 10.6721 25.2275C10.9246 25.2275 11.1668 25.1272 11.3453 24.9485C11.5239 24.7698 11.6242 24.5275 11.6242 24.2748Z" fill="white"/>
<path d="M23.0498 24.2748C23.0498 25.0328 22.7489 25.7599 22.2132 26.2959C21.6775 26.8319 20.951 27.1331 20.1934 27.1331C19.4359 27.1331 18.7093 26.8319 18.1737 26.2959C17.638 25.7599 17.337 25.0328 17.337 24.2748C17.337 23.5167 17.638 22.7897 18.1737 22.2537C18.7093 21.7176 19.4359 21.4165 20.1934 21.4165C20.951 21.4165 21.6775 21.7176 22.2132 22.2537C22.7489 22.7897 23.0498 23.5167 23.0498 24.2748ZM21.1456 24.2748C21.1456 24.0221 21.0453 23.7798 20.8667 23.6011C20.6881 23.4224 20.446 23.322 20.1934 23.322C19.9409 23.322 19.6987 23.4224 19.5202 23.6011C19.3416 23.7798 19.2413 24.0221 19.2413 24.2748C19.2413 24.5275 19.3416 24.7698 19.5202 24.9485C19.6987 25.1272 19.9409 25.2275 20.1934 25.2275C20.446 25.2275 20.6881 25.1272 20.8667 24.9485C21.0453 24.7698 21.1456 24.5275 21.1456 24.2748Z" fill="white"/>
</svg>
