<svg width="48" height="36" viewBox="0 0 48 36" fill="none" xmlns="http://www.w3.org/2000/svg">
<path d="M45.7864 9.31737L45.7861 9.31771L21.7815 33.453C20.7751 34.4127 19.4404 34.9821 18.0692 34.9821C16.6944 34.9821 15.3626 34.4102 14.4123 33.4568L2.38219 21.3871C1.43927 20.4411 0.912891 19.1074 0.912891 17.716C0.912891 16.3449 1.47642 15.0574 2.43391 14.0451C3.43282 13.0943 4.7147 12.5694 6.09849 12.5197C7.47292 12.5217 8.75178 13.0437 9.75157 13.9972L17.7505 22.0224L18.0692 22.3422L18.3879 22.0224L38.417 1.92744C39.4168 0.973969 40.6957 0.451967 42.0701 0.450006C43.4564 0.499767 44.7372 1.0263 45.7348 2.02712C46.6883 2.98376 47.2557 4.27002 47.2557 5.64634C47.2557 7.03773 46.7293 8.37135 45.7864 9.31737Z" fill="black" stroke="#181725" stroke-width="0.9"/>
</svg>
