<svg width="48" height="36" viewBox="0 0 48 36" fill="none" xmlns="http://www.w3.org/2000/svg">
<path d="M45.3235 9.31737L45.3232 9.31771L21.3186 33.453C20.3122 34.4127 18.9775 34.9821 17.6063 34.9821C16.2315 34.9821 14.8997 34.4102 13.9494 33.4568L1.9193 21.3871C0.976382 20.4411 0.45 19.1074 0.45 17.716C0.45 16.3449 1.01353 15.0574 1.97101 14.0451C2.96993 13.0943 4.25181 12.5694 5.6356 12.5197C7.01003 12.5217 8.28889 13.0437 9.28868 13.9972L17.2876 22.0224L17.6063 22.3422L17.9251 22.0224L37.9542 1.92744C38.9539 0.973969 40.2328 0.451967 41.6072 0.450006C42.9935 0.499767 44.2743 1.0263 45.2719 2.02712C46.2254 2.98376 46.7928 4.27002 46.7928 5.64634C46.7928 7.03773 46.2664 8.37135 45.3235 9.31737Z" fill="#53B175" stroke="#53B175" stroke-width="0.9"/>
</svg>
