<svg width="20" height="22" viewBox="0 0 20 22" fill="none" xmlns="http://www.w3.org/2000/svg">
<path d="M10 0.153809C4.47768 0.153809 0 4.97592 0 10.923C0 16.8702 4.47768 21.6923 10 21.6923C15.5223 21.6923 20 16.8702 20 10.923C20 4.97592 15.5223 0.153809 10 0.153809ZM10 19.8653C5.41518 19.8653 1.69643 15.8605 1.69643 10.923C1.69643 5.98554 5.41518 1.98073 10 1.98073C14.5848 1.98073 18.3036 5.98554 18.3036 10.923C18.3036 15.8605 14.5848 19.8653 10 19.8653ZM10.125 7.06006C11.308 7.06006 12.1116 7.87256 12.2009 9.06487C12.2076 9.16583 12.2857 9.24275 12.3795 9.24275H13.6451C13.7031 9.24275 13.75 9.19227 13.75 9.12977C13.75 7.04564 12.2232 5.5865 10.1183 5.5865C7.66518 5.5865 6.25 7.37015 6.25 10.3173V11.5745C6.25 14.5 7.66518 16.2596 10.1183 16.2596C12.2165 16.2596 13.75 14.8461 13.75 12.8605C13.75 12.798 13.7031 12.7476 13.6451 12.7476H12.3772C12.2835 12.7476 12.2076 12.8245 12.1987 12.923C12.1049 14.0312 11.3036 14.7932 10.1228 14.7932C8.66518 14.7932 7.84375 13.6418 7.84375 11.5817V10.3173C7.84598 8.22592 8.66964 7.06006 10.125 7.06006Z" fill="#FFF9FF"/>
</svg>
