<svg width="46" height="38" viewBox="0 0 46 38" fill="none" xmlns="http://www.w3.org/2000/svg">
<path d="M38.7659 8.83197C38.3668 8.1748 37.8039 7.63084 37.1316 7.25256C36.4593 6.87429 35.7001 6.67446 34.9274 6.67235H29.4764V2.22412C29.4764 1.63425 29.2405 1.06853 28.8205 0.651429C28.4005 0.234326 27.8309 0 27.2369 0H4.84192C2.37175 0 0.362915 1.99503 0.362915 4.44824V26.6894C0.362915 28.3486 1.29455 29.7832 2.65392 30.546C2.92938 34.5917 6.29759 37.81 10.4407 37.81C14.3799 37.81 17.616 34.8986 18.1647 31.1376H25.1116C25.6603 34.8986 28.8964 37.81 32.8357 37.81C36.7749 37.81 40.011 34.8986 40.5597 31.1376H40.6739C43.1441 31.1376 45.1529 29.1426 45.1529 26.6894V20.0171C45.1534 19.6134 45.0426 19.2173 44.8327 18.8716L38.7659 8.83197ZM29.4764 11.1206H34.9274L38.9585 17.7929H29.4764V11.1206ZM10.4407 33.3618C8.5886 33.3618 7.08142 31.8649 7.08142 30.0256C7.08142 28.1862 8.5886 26.6894 10.4407 26.6894C12.2927 26.6894 13.7999 28.1862 13.7999 30.0256C13.7999 31.8649 12.2927 33.3618 10.4407 33.3618ZM32.8357 33.3618C30.9836 33.3618 29.4764 31.8649 29.4764 30.0256C29.4764 28.1862 30.9836 26.6894 32.8357 26.6894C34.6877 26.6894 36.1949 28.1862 36.1949 30.0256C36.1949 31.8649 34.6877 33.3618 32.8357 33.3618Z" fill="black"/>
</svg>
