<svg width="29" height="19" viewBox="0 0 29 19" fill="none" xmlns="http://www.w3.org/2000/svg">
<path d="M18.1446 14.5623C18.9325 14.5623 19.7127 14.407 20.4407 14.1052C21.1686 13.8035 21.8301 13.3613 22.3872 12.8037C22.9444 12.2462 23.3863 11.5843 23.6879 10.8559C23.9894 10.1275 24.1446 9.34674 24.1446 8.55829C24.1446 7.76984 23.9894 6.98911 23.6879 6.26067C23.3863 5.53223 22.9444 4.87036 22.3872 4.31284C21.8301 3.75532 21.1686 3.31307 20.4407 3.01134C19.7127 2.70962 18.9325 2.55432 18.1446 2.55432C16.5533 2.55432 15.0272 3.18688 13.9019 4.31284C12.7767 5.4388 12.1446 6.96594 12.1446 8.55829C12.1446 10.1506 12.7767 11.6778 13.9019 12.8037C15.0272 13.9297 16.5533 14.5623 18.1446 14.5623ZM24.4646 13.4675L28.0446 17.0499C28.14 17.1423 28.2161 17.2528 28.2684 17.3749C28.3208 17.497 28.3483 17.6283 28.3493 17.7612C28.3504 17.8941 28.325 18.0258 28.2746 18.1487C28.2242 18.2717 28.1499 18.3834 28.056 18.4772C27.962 18.5711 27.8503 18.6454 27.7274 18.6956C27.6044 18.7458 27.4727 18.771 27.34 18.7698C27.2072 18.7685 27.076 18.7408 26.954 18.6883C26.8321 18.6358 26.7218 18.5595 26.6296 18.4638L23.0496 14.8815C21.442 16.1302 19.4194 16.7189 17.3933 16.5278C15.3673 16.3367 13.4902 15.3801 12.1441 13.8529C10.7981 12.3256 10.0843 10.3424 10.148 8.30705C10.2117 6.27168 11.0482 4.33712 12.4872 2.89719C13.9262 1.45726 15.8595 0.620205 17.8935 0.556422C19.9275 0.492639 21.9094 1.20692 23.4356 2.55387C24.9619 3.90081 25.9178 5.77917 26.1088 7.80655C26.2997 9.83393 25.7114 11.8579 24.4636 13.4665L24.4646 13.4675Z" fill="#181725"/>
<rect x="3.05176e-05" y="0.55249" width="8.855" height="2.40076" rx="1.20038" fill="#181725"/>
<rect x="3.05176e-05" y="7.99561" width="6.46414" height="2.40076" rx="1.20038" fill="#181725"/>
<rect x="3.05176e-05" y="15.4392" width="8.855" height="2.40076" rx="1.20038" fill="#181725"/>
</svg>
