<svg width="63" height="45" viewBox="0 0 63 45" fill="none" xmlns="http://www.w3.org/2000/svg">
<g clip-path="url(#clip0)">
<path fill-rule="evenodd" clip-rule="evenodd" d="M15.1448 35.3841L0.681396 30.0093V14.6266L32.8742 3.13525L47.3376 8.51006V23.9626L15.1448 35.3841Z" fill="#24AE5F"/>
<path fill-rule="evenodd" clip-rule="evenodd" d="M0.681396 28.9137V30.2498L15.1094 35.5941L47.2226 24.2372V22.9011L15.1094 34.258L0.681396 28.9137ZM0.681396 26.5756V27.9117L15.1094 33.2561L47.2226 21.8996V20.563L15.1094 31.92L0.681396 26.5756ZM0.681396 21.8991V23.2352L15.1094 28.5795L47.2226 17.223V15.887L15.1094 27.2435L0.681396 21.8991ZM0.681396 24.2372V25.5732L15.1094 30.9176L47.2226 19.5606V18.2246L15.1094 29.5819L0.681396 24.2372ZM0.681396 19.5611V20.8972L15.1094 26.2415L47.2226 14.8846V13.5489L15.1094 24.9054L0.681396 19.5611ZM15.1455 20.2159L0.681396 14.8183V16.1678L15.1455 21.565L47.3395 10.0956V8.74609L15.1455 20.2159ZM0.681396 17.223V18.5591L15.1455 23.9035L47.3395 12.5465V11.2104L15.1455 22.5674L0.681396 17.223Z" fill="#1E9450"/>
<path fill-rule="evenodd" clip-rule="evenodd" d="M30.6242 41.1552L16.2323 35.8104V22.6851L48.2665 11.3286L62.8898 16.7065V29.6957L30.6242 41.1552Z" fill="#24AE5F"/>
<path fill-rule="evenodd" clip-rule="evenodd" d="M16.2335 34.5263V35.8624L30.697 41.2067L62.8898 29.8497V28.5137L30.697 39.8706L16.2335 34.5263ZM16.2335 32.1882V33.5243L30.697 38.8687L62.8898 27.5117V26.1756L30.697 37.5321L16.2335 32.1882ZM16.2335 27.5117V28.8478L30.697 34.1921L62.8898 22.8352V21.4991L30.697 32.8561L16.2335 27.5117ZM16.2335 29.8497V31.1858L30.697 36.5306L62.8898 25.1737V23.8376L30.697 35.1941L16.2335 29.8497ZM16.2335 25.1737V26.5098L30.697 31.8541L62.8898 20.4971V19.1611L30.697 30.518L16.2335 25.1737ZM30.697 28.0254L16.2335 22.6816V24.0176L30.697 29.362L62.8898 18.005V16.6689L30.697 28.0254Z" fill="#1E9450"/>
<path opacity="0.1" d="M15.5518 20.6136L1.12378 15.2769V30.6595L15.5872 35.9922L15.5518 20.6136ZM31.1038 28.4227L16.6759 23.086V36.2059L31.1393 41.5386L31.1038 28.4227Z" fill="black"/>
<path fill-rule="evenodd" clip-rule="evenodd" d="M38.004 22.668L30.9353 25.1131L24.8998 22.775L33.0728 19.8924C33.0728 19.8924 32.5054 18.7189 32.8526 18.5402C32.8463 18.5612 20.7928 22.8812 20.7928 22.8812L31.1089 26.5947L41.7141 22.7773C41.7141 22.7773 40.6759 22.8019 39.7558 22.7746C38.8214 22.7477 38.004 22.668 38.004 22.668ZM46.3686 21.1021L58.8463 16.7965L48.707 12.833L38.1116 16.6469C39.7179 16.5873 41.0336 17.0849 41.0336 17.0849L48.577 14.4244L55.0765 16.7629L46.3735 19.7728L46.3686 21.1021Z" fill="#1E9450"/>
<path d="M40.6409 21.0327C41.0615 21.042 41.481 20.9962 41.8788 20.8974L39.6835 20.0599L39.4969 20.0948L39.258 20.1499C38.9327 20.2202 38.5992 20.2852 38.2565 20.3438C37.9137 20.4025 37.5653 20.4392 37.2114 20.454C36.8574 20.4688 36.504 20.4536 36.1526 20.4088C35.7842 20.3599 35.4288 20.2696 35.0994 20.1414C34.7423 20.0052 34.4941 19.8592 34.3554 19.7038C34.2166 19.5479 34.165 19.3929 34.1999 19.238C34.2347 19.083 34.3467 18.9307 34.5345 18.7816C34.7443 18.6195 34.9854 18.4801 35.2505 18.3677L34.4418 18.0591L35.0521 17.8262L35.8608 18.1348C36.2101 18.0286 36.5708 17.9432 36.9395 17.8795C37.313 17.8146 37.6946 17.7763 38.0785 17.7653C38.4718 17.755 38.8654 17.7756 39.2524 17.8266C39.6585 17.8805 40.053 17.9726 40.4257 18.1007L38.9569 18.6611C38.6535 18.5539 38.3218 18.4945 37.984 18.4868C37.6226 18.4752 37.3246 18.5142 37.09 18.6037L38.9495 19.3132L39.2661 19.2407L39.6138 19.1641C40.2639 19.023 40.8306 18.9392 41.3127 18.9123C41.7949 18.8864 42.2141 18.8908 42.5694 18.9262C42.9246 18.9621 43.2263 19.018 43.4745 19.0937C43.7227 19.1703 43.9348 19.242 44.1096 19.3087C44.2639 19.3674 44.4201 19.4561 44.5787 19.5748C44.7373 19.6935 44.8306 19.8328 44.858 19.9931C44.886 20.1535 44.8213 20.3304 44.6658 20.5234C44.5096 20.7165 44.1905 20.9185 43.709 21.1294L44.6017 21.4703L43.9914 21.7032L43.0987 21.3624C42.2701 21.6356 41.4253 21.7735 40.5638 21.7762C39.7022 21.7793 38.8238 21.636 37.928 21.3467L39.3862 20.7904C39.7705 20.9439 40.2014 21.0271 40.6409 21.0327ZM42.7871 20.4822C42.876 20.4137 42.932 20.3429 42.955 20.2699C42.9776 20.1953 42.9612 20.1173 42.909 20.0509C42.8555 19.9779 42.7448 19.9094 42.5762 19.8453C42.3103 19.7423 42.0098 19.6945 41.7084 19.7074C41.4029 19.7199 40.9905 19.7822 40.4717 19.8946L42.4885 20.6641C42.5979 20.6124 42.6981 20.5513 42.7871 20.4822ZM36.1899 18.9871C36.1205 19.0346 36.0728 19.0962 36.053 19.1636C36.0455 19.1958 36.047 19.2288 36.0575 19.2606C36.068 19.2923 36.0872 19.3223 36.114 19.3486C36.1706 19.41 36.2726 19.4686 36.4201 19.5246C36.6515 19.6129 36.9022 19.6536 37.1728 19.6464C37.4434 19.6393 37.7831 19.5869 38.1911 19.4901L36.4785 18.8371C36.3721 18.876 36.2747 18.9266 36.1899 18.9871Z" fill="#1E9450"/>
<path fill-rule="evenodd" clip-rule="evenodd" d="M22.1949 14.6055L15.1262 17.0506L9.09076 14.7125L17.2637 11.8299C17.2637 11.8299 16.6957 10.6564 17.0435 10.4776C17.0373 10.4987 4.98376 14.8187 4.98376 14.8187L15.2998 18.5322L25.9051 14.7148C25.9051 14.7148 24.8668 14.7394 23.9467 14.7121C23.0124 14.6852 22.1949 14.6055 22.1949 14.6055ZM30.5595 13.0396L43.0372 8.73398L32.8979 4.77051L22.3026 8.58438C23.9088 8.52481 25.2245 9.02242 25.2245 9.02242L32.7679 6.3619L39.2674 8.70038L30.5651 11.7103L30.5595 13.0396Z" fill="#1E9450"/>
<path d="M24.832 12.9702C25.2526 12.9798 25.6721 12.9339 26.0699 12.835L23.8739 11.9974L23.6873 12.0323L23.4484 12.0874C23.1173 12.159 22.7833 12.2237 22.4469 12.2814C22.1041 12.34 21.7558 12.3768 21.4018 12.3916C21.0478 12.4063 20.6951 12.3911 20.343 12.3463C19.9747 12.2974 19.6193 12.2072 19.2898 12.0789C18.9327 11.9428 18.6845 11.7967 18.5458 11.6413C18.4071 11.4855 18.3554 11.3305 18.3903 11.1755C18.4257 11.0205 18.5371 10.8687 18.725 10.7195C18.9347 10.5575 19.1759 10.4181 19.441 10.3057L18.6323 9.99708L19.2425 9.76417L20.0512 10.0728C20.4005 9.96657 20.7613 9.88118 21.1299 9.81747C21.5035 9.75255 21.885 9.71429 22.269 9.70326C22.6622 9.69297 23.0558 9.71355 23.4428 9.76462C23.849 9.81847 24.2434 9.91064 24.6161 10.0387L23.1474 10.5991C22.8439 10.4918 22.5122 10.4324 22.1744 10.4248C21.813 10.4132 21.515 10.4521 21.2805 10.5417L23.1399 11.2512L23.4565 11.1782L23.8043 11.1016C24.4543 10.9605 25.0211 10.8768 25.5032 10.8499C25.9853 10.8235 26.4046 10.8284 26.7598 10.8638C27.115 10.8996 27.4167 10.9556 27.6649 11.0317C27.9131 11.1083 28.1253 11.18 28.3001 11.2467C28.4543 11.3054 28.6105 11.3941 28.7691 11.5128C28.9277 11.6315 29.0211 11.7708 29.0484 11.9311C29.0764 12.0915 29.0117 12.2684 28.8562 12.4614C28.7001 12.6545 28.3809 12.8565 27.8994 13.0674L28.7921 13.4083L28.1819 13.6412L27.2892 13.3003C26.4606 13.5736 25.6158 13.7115 24.7542 13.7142C23.8926 13.7173 23.0142 13.574 22.1184 13.2847L23.5766 12.7284C23.9685 12.8829 24.3872 12.9635 24.832 12.9702ZM26.9781 12.4198C27.0671 12.3512 27.1231 12.2805 27.1455 12.2075C27.1681 12.1329 27.1517 12.0549 27.0994 11.9884C27.0459 11.9154 26.9352 11.8469 26.7666 11.7824C26.5007 11.6793 26.2003 11.6316 25.8988 11.6445L24.6621 11.8321L26.6789 12.6016C26.7896 12.5492 26.8892 12.4887 26.9781 12.4198ZM20.3809 10.9247C20.3116 10.9722 20.2638 11.0337 20.2441 11.1012C20.2366 11.1334 20.2381 11.1663 20.2485 11.1981C20.259 11.2299 20.2782 11.2598 20.3051 11.2861C20.3623 11.3475 20.4637 11.4062 20.6111 11.4622C20.8425 11.5504 21.0932 11.5912 21.3645 11.584C21.6351 11.5768 21.9747 11.5244 22.3828 11.4277L20.6702 10.7746C20.5634 10.8134 20.4658 10.864 20.3809 10.9247Z" fill="#1E9450"/>
</g>
<defs>
<clipPath id="clip0">
<rect width="62.2083" height="44.79" fill="white" transform="translate(0.681396)"/>
</clipPath>
</defs>
</svg>
