<svg width="10" height="19" viewBox="0 0 10 19" fill="none" xmlns="http://www.w3.org/2000/svg">
<path d="M0.404172 2.48442C0.169492 2.22711 0.039114 1.88854 0.0521517 1.53643C0.0521517 1.18431 0.182529 0.859283 0.430248 0.601971C0.664928 0.3582 0.990874 0.209229 1.32986 0.209229C1.66884 0.209229 1.99479 0.331116 2.2425 0.574886L9.6219 8.24013C9.73924 8.36201 9.83051 8.51098 9.8957 8.6735C9.96089 8.83601 10 9.01207 10 9.18812C10 9.36418 9.96089 9.54024 9.8957 9.7163C9.83051 9.87881 9.73924 10.0278 9.6219 10.1497L2.2425 17.8149C2.12516 17.9368 1.98175 18.0451 1.82529 18.1128C1.6558 18.1806 1.48631 18.2212 1.31682 18.2212C1.14733 18.2212 0.964798 18.1941 0.808344 18.1264C0.65189 18.0587 0.508474 17.9503 0.378097 17.8284C0.260756 17.7066 0.169492 17.544 0.104302 17.3815C0.0260754 17.219 0 17.043 0 16.8534C0 16.6773 0.039113 16.5013 0.104302 16.3387C0.169492 16.1762 0.273794 16.0273 0.404172 15.8918L6.85789 9.18812L5.63233 7.92864L0.404172 2.48442Z" fill="#030303"/>
</svg>
