<svg width="43" height="43" viewBox="0 0 43 43" fill="none" xmlns="http://www.w3.org/2000/svg">
<path d="M21.5 43C18.5885 43 15.8031 42.4331 13.1436 41.2993C10.484 40.1655 8.19548 38.6398 6.27783 36.7222C4.36019 34.8045 2.83447 32.5159 1.70068 29.8564C0.566895 27.1969 0 24.4115 0 21.5C0 18.5885 0.566895 15.8031 1.70068 13.1436C2.83447 10.484 4.36019 8.19548 6.27783 6.27783C8.19548 4.36019 10.484 2.83447 13.1436 1.70068C15.8031 0.566895 18.5885 0 21.5 0C24.4115 0 27.1969 0.566895 29.8564 1.70068C32.5159 2.83447 34.8045 4.36019 36.7222 6.27783C38.6398 8.19548 40.1655 10.484 41.2993 13.1436C42.4331 15.8031 43 18.5885 43 21.5C43 24.4115 42.4331 27.1969 41.2993 29.8564C40.1655 32.5159 38.6398 34.8045 36.7222 36.7222C34.8045 38.6398 32.5159 40.1655 29.8564 41.2993C27.1969 42.4331 24.4115 43 21.5 43ZM32.25 13.4375C32.25 12.7096 31.991 12.0798 31.4731 11.5479C30.9552 11.016 30.3184 10.75 29.5625 10.75H13.4375C12.7096 10.75 12.0798 11.016 11.5479 11.5479C11.016 12.0798 10.75 12.7096 10.75 13.4375V16.125H15.5371C17.1608 14.3333 19.1484 13.4375 21.5 13.4375C23.8516 13.4375 25.8392 14.3333 27.4629 16.125H32.25V13.4375ZM16.125 21.5C16.125 22.9837 16.6499 24.2505 17.6997 25.3003C18.7495 26.3501 20.0163 26.875 21.5 26.875C22.9837 26.875 24.2505 26.3501 25.3003 25.3003C26.3501 24.2505 26.875 22.9837 26.875 21.5C26.875 20.0163 26.3501 18.7495 25.3003 17.6997C24.2505 16.6499 22.9837 16.125 21.5 16.125C20.0163 16.125 18.7495 16.6499 17.6997 17.6997C16.6499 18.7495 16.125 20.0163 16.125 21.5ZM32.25 18.8125H29.0586C29.3945 19.7363 29.5625 20.6322 29.5625 21.5C29.5625 23.7396 28.7786 25.6432 27.2109 27.2109C25.6432 28.7786 23.7396 29.5625 21.5 29.5625C19.2604 29.5625 17.3568 28.7786 15.7891 27.2109C14.2214 25.6432 13.4375 23.7396 13.4375 21.5C13.4375 20.6322 13.6055 19.7363 13.9414 18.8125H10.75V29.5625C10.75 30.3184 11.009 30.9552 11.5269 31.4731C12.0448 31.991 12.6816 32.25 13.4375 32.25H29.5625C30.3184 32.25 30.9552 31.991 31.4731 31.4731C31.991 30.9552 32.25 30.3184 32.25 29.5625V18.8125Z" fill="white"/>
</svg>
