<svg width="43" height="43" viewBox="0 0 43 43" fill="none" xmlns="http://www.w3.org/2000/svg">
<path d="M21.5 0C9.62573 0 0 9.62573 0 21.5C0 33.3743 9.62573 43 21.5 43C33.3743 43 43 33.3743 43 21.5C43 9.62573 33.3743 0 21.5 0ZM16.237 30.4113H11.8832V16.4005H16.237V30.4113ZM14.0332 14.6805C12.6581 14.6805 11.769 13.7062 11.769 12.5014C11.769 11.2718 12.685 10.3267 14.0892 10.3267C15.4934 10.3267 16.3534 11.2718 16.3803 12.5014C16.3803 13.7062 15.4934 14.6805 14.0332 14.6805ZM32.138 30.4113H27.7843V22.6467C27.7843 20.8393 27.1527 19.612 25.5783 19.612C24.3756 19.612 23.6612 20.4429 23.3454 21.2424C23.229 21.5269 23.1998 21.93 23.1998 22.3309V30.4091H18.8439V20.8684C18.8439 19.1193 18.7879 17.6569 18.7296 16.3982H22.5123L22.7116 18.3444H22.799C23.3723 17.4307 24.7765 16.0824 27.1258 16.0824C29.9903 16.0824 32.138 18.0018 32.138 22.1271V30.4113Z" fill="white"/>
</svg>
