<svg width="45" height="41" viewBox="0 0 45 41" fill="none" xmlns="http://www.w3.org/2000/svg">
<path d="M22.5818 12.8413C20.4566 12.8413 18.558 13.7148 17.3038 15.0809C16.5299 15.925 16.0198 16.9395 15.8262 18.0199C15.6325 19.1004 15.7622 20.2077 16.202 21.228C16.6417 22.2484 17.3756 23.1448 18.3281 23.8251C19.2806 24.5054 20.4173 24.945 21.6212 25.0987C23.2578 22.2574 26.0554 20.0985 29.4251 19.0764V19.0002C29.4251 17.5109 28.8378 16.1447 27.8598 15.0809C26.6056 13.7148 24.7069 12.8413 22.5818 12.8413ZM44.1741 22.7449C42.6839 21.1752 40.7783 19.9688 38.6333 19.2368C36.4883 18.5048 34.173 18.271 31.9011 18.5568C31.8323 17.3424 31.4696 16.1561 30.8385 15.0809H41.2452C42.2352 15.0809 43.1846 15.4349 43.8846 16.0649C44.5846 16.6949 44.9779 17.5494 44.9779 18.4403V19.5601C44.9779 20.6352 44.7042 21.7191 44.1741 22.7449ZM20.6084 27.3988C20.2725 28.4671 20.0933 29.5936 20.0933 30.7582C20.0933 34.7828 22.2359 38.355 25.553 40.6013C24.5725 40.7598 23.578 40.8385 22.5818 40.8365C14.768 40.8365 10.1395 36.2923 10.1395 31.878V30.7582C10.1382 30.3167 10.2338 29.8793 10.421 29.4712C10.6081 29.0631 10.883 28.6923 11.2299 28.3801C11.5767 28.0679 11.9887 27.8205 12.4422 27.6521C12.8957 27.4837 13.3816 27.3976 13.8722 27.3988H20.6084ZM8.43491 28.0348C3.18426 26.756 0.185669 23.1144 0.185669 19.5601V18.4403C0.185669 17.5494 0.578933 16.6949 1.27895 16.0649C1.97896 15.4349 2.92839 15.0809 3.91836 15.0809H14.3276C13.6181 16.2885 13.2482 17.6342 13.2501 19.0002C13.2484 20.1567 13.5129 21.301 14.0268 22.361C14.5408 23.421 15.293 24.3737 16.2362 25.1592H13.8722C12.7634 25.1589 11.6746 25.4254 10.7187 25.931C9.76269 26.4366 8.97423 27.1629 8.43491 28.0348ZM12.628 0.523438C14.4429 0.523438 16.1835 1.17232 17.4669 2.32735C18.7502 3.48237 19.4712 5.04892 19.4712 6.68237C19.4712 8.31582 18.7502 9.88237 17.4669 11.0374C16.1835 12.1924 14.4429 12.8413 12.628 12.8413C10.813 12.8413 9.0724 12.1924 7.78904 11.0374C6.50568 9.88237 5.7847 8.31582 5.7847 6.68237C5.7847 5.04892 6.50568 3.48237 7.78904 2.32735C9.0724 1.17232 10.813 0.523438 12.628 0.523438ZM32.5356 0.523438C34.3506 0.523438 36.0912 1.17232 37.3745 2.32735C38.6579 3.48237 39.3789 5.04892 39.3789 6.68237C39.3789 8.31582 38.6579 9.88237 37.3745 11.0374C36.0912 12.1924 34.3506 12.8413 32.5356 12.8413C30.7207 12.8413 28.9801 12.1924 27.6967 11.0374C26.4133 9.88237 25.6924 8.31582 25.6924 6.68237C25.6924 5.04892 26.4133 3.48237 27.6967 2.32735C28.9801 1.17232 30.7207 0.523438 32.5356 0.523438ZM33.7799 40.8365C36.7498 40.8365 39.598 39.7746 41.6981 37.8846C43.7981 35.9946 44.9779 33.4311 44.9779 30.7582C44.9779 28.0853 43.7981 25.5218 41.6981 23.6318C39.598 21.7418 36.7498 20.6799 33.7799 20.6799C30.8099 20.6799 27.9617 21.7418 25.8616 23.6318C23.7616 25.5218 22.5818 28.0853 22.5818 30.7582C22.5818 33.4311 23.7616 35.9946 25.8616 37.8846C27.9617 39.7746 30.8099 40.8365 33.7799 40.8365ZM33.7799 25.1592C34.1098 25.1592 34.4263 25.2772 34.6597 25.4872C34.893 25.6972 35.0241 25.982 35.0241 26.279V29.6384H38.7568C39.0868 29.6384 39.4032 29.7564 39.6366 29.9664C39.8699 30.1764 40.001 30.4612 40.001 30.7582C40.001 31.0552 39.8699 31.34 39.6366 31.55C39.4032 31.76 39.0868 31.878 38.7568 31.878H35.0241V35.2374C35.0241 35.5344 34.893 35.8192 34.6597 36.0293C34.4263 36.2393 34.1098 36.3572 33.7799 36.3572C33.4499 36.3572 33.1334 36.2393 32.9001 36.0293C32.6667 35.8192 32.5356 35.5344 32.5356 35.2374V31.878H28.8029C28.4729 31.878 28.1565 31.76 27.9231 31.55C27.6898 31.34 27.5587 31.0552 27.5587 30.7582C27.5587 30.4612 27.6898 30.1764 27.9231 29.9664C28.1565 29.7564 28.4729 29.6384 28.8029 29.6384H32.5356V26.279C32.5356 25.982 32.6667 25.6972 32.9001 25.4872C33.1334 25.2772 33.4499 25.1592 33.7799 25.1592Z" fill="#181725"/>
</svg>
