<svg width="49" height="48" viewBox="0 0 49 48" fill="none" xmlns="http://www.w3.org/2000/svg">
<path d="M34.8906 35.8069V20.4806C34.8906 14.5858 30.35 9.87006 24.6744 9.87006C18.9987 9.87006 14.4581 14.5858 14.4581 20.4806V35.8069H34.8906ZM39.4311 33.449L43.9717 38.1648V40.5227H5.37703V38.1648L9.91758 33.449V20.4806C9.91758 13.2418 14.7533 7.18206 21.2689 5.57869V3.97532C21.2689 3.03729 21.6277 2.13768 22.2664 1.47439C22.905 0.811107 23.7712 0.438477 24.6744 0.438477C25.5775 0.438477 26.4437 0.811107 27.0823 1.47439C27.721 2.13768 28.0798 3.03729 28.0798 3.97532V5.57869C34.5727 7.18206 39.4311 13.2418 39.4311 20.4806V33.449ZM24.6744 47.5964C23.4701 47.5964 22.3152 47.0995 21.4637 46.2151C20.6122 45.3308 20.1338 44.1313 20.1338 42.8806H29.2149C29.2149 44.1313 28.7365 45.3308 27.885 46.2151C27.0335 47.0995 25.8786 47.5964 24.6744 47.5964ZM43.9036 19.3016C43.563 13.0532 40.4755 7.51216 35.8441 4.16395L39.0906 0.792161C44.5165 5.08353 48.1036 11.7328 48.4441 19.3016H43.9036ZM13.5046 4.16395C8.87325 7.51216 5.78568 13.0532 5.37703 19.3016H0.836487C1.24514 11.7328 4.83217 5.08353 10.2581 0.792161L13.5046 4.16395Z" fill="#53B175"/>
</svg>
