<svg width="12" height="13" viewBox="0 0 12 13" fill="none" xmlns="http://www.w3.org/2000/svg">
<path d="M9.5 4.66665H10.6667C10.8214 4.66665 10.9697 4.72811 11.0791 4.8375C11.1885 4.9469 11.25 5.09527 11.25 5.24998V12.25C11.25 12.4047 11.1885 12.5531 11.0791 12.6625C10.9697 12.7719 10.8214 12.8333 10.6667 12.8333H1.33333C1.17862 12.8333 1.03025 12.7719 0.920854 12.6625C0.811458 12.5531 0.75 12.4047 0.75 12.25V5.24998C0.75 5.09527 0.811458 4.9469 0.920854 4.8375C1.03025 4.72811 1.17862 4.66665 1.33333 4.66665H2.5V4.08331C2.5 3.15506 2.86875 2.26482 3.52513 1.60844C4.1815 0.952062 5.07174 0.583313 6 0.583313C6.92826 0.583313 7.8185 0.952062 8.47487 1.60844C9.13125 2.26482 9.5 3.15506 9.5 4.08331V4.66665ZM1.91667 5.83331V11.6666H10.0833V5.83331H1.91667ZM5.41667 8.16665H6.58333V9.33331H5.41667V8.16665ZM3.08333 8.16665H4.25V9.33331H3.08333V8.16665ZM7.75 8.16665H8.91667V9.33331H7.75V8.16665ZM8.33333 4.66665V4.08331C8.33333 3.46447 8.0875 2.87098 7.64992 2.4334C7.21233 1.99581 6.61884 1.74998 6 1.74998C5.38116 1.74998 4.78767 1.99581 4.35008 2.4334C3.9125 2.87098 3.66667 3.46447 3.66667 4.08331V4.66665H8.33333Z" fill="black"/>
</svg>
