<svg width="16" height="14" viewBox="0 0 16 14" fill="none" xmlns="http://www.w3.org/2000/svg">
<path d="M2.90909 0H16V10.5H2.90909V0ZM9.45455 2.625C10.0332 2.625 10.5882 2.90156 10.9973 3.39384C11.4065 3.88613 11.6364 4.55381 11.6364 5.25C11.6364 5.94619 11.4065 6.61387 10.9973 7.10616C10.5882 7.59844 10.0332 7.875 9.45455 7.875C8.87589 7.875 8.32094 7.59844 7.91177 7.10616C7.5026 6.61387 7.27273 5.94619 7.27273 5.25C7.27273 4.55381 7.5026 3.88613 7.91177 3.39384C8.32094 2.90156 8.87589 2.625 9.45455 2.625ZM5.81818 1.75C5.81818 2.21413 5.66494 2.65925 5.39216 2.98744C5.11938 3.31563 4.74941 3.5 4.36364 3.5V7C4.74941 7 5.11938 7.18437 5.39216 7.51256C5.66494 7.84075 5.81818 8.28587 5.81818 8.75H13.0909C13.0909 8.28587 13.2442 7.84075 13.5169 7.51256C13.7897 7.18437 14.1597 7 14.5455 7V3.5C14.1597 3.5 13.7897 3.31563 13.5169 2.98744C13.2442 2.65925 13.0909 2.21413 13.0909 1.75H5.81818ZM0 3.5H1.45455V12.25H13.0909V14H0V3.5Z" fill="#181725"/>
</svg>
