<svg width="14" height="14" viewBox="0 0 14 14" fill="none" xmlns="http://www.w3.org/2000/svg">
<path d="M6.99536 0C3.13392 0 0 3.136 0 7C0 10.864 3.13392 14 6.99536 14C10.8568 14 13.9907 10.864 13.9907 7C13.9907 3.136 10.8568 0 6.99536 0ZM6.99536 2.1C8.15659 2.1 9.09396 3.038 9.09396 4.2C9.09396 5.362 8.15659 6.3 6.99536 6.3C5.83413 6.3 4.89675 5.362 4.89675 4.2C4.89675 3.038 5.83413 2.1 6.99536 2.1ZM6.99536 12.04C6.16421 12.04 5.34598 11.8342 4.61363 11.4409C3.88128 11.0476 3.25758 10.4791 2.79814 9.786C2.81913 8.393 5.59629 7.63 6.99536 7.63C8.38743 7.63 11.1716 8.393 11.1926 9.786C10.7331 10.4791 10.1094 11.0476 9.37708 11.4409C8.64473 11.8342 7.8265 12.04 6.99536 12.04Z" fill="black"/>
</svg>
