<svg width="45" height="35" viewBox="0 0 45 35" fill="none" xmlns="http://www.w3.org/2000/svg">
<path d="M15.5355 15.5516L19.7655 0.881617H9.05551L3.29551 14.1116C0.685508 19.8716 0.325508 21.8516 0.325508 24.3716C0.325508 30.4916 4.64551 34.4516 10.5855 34.4516C16.4355 34.4516 20.8455 30.4916 20.8455 24.3716C20.8455 20.1416 18.7755 17.0816 15.5355 15.5516ZM39.1155 15.5516L43.3455 0.881617H32.6355L26.8755 14.1116C24.2655 19.8716 23.9055 21.8516 23.9055 24.3716C23.9055 30.4916 28.2255 34.4516 34.1655 34.4516C40.0155 34.4516 44.4255 30.4916 44.4255 24.3716C44.4255 20.1416 42.3555 17.0816 39.1155 15.5516Z" fill="#53B175"/>
</svg>
