<svg width="18" height="18" viewBox="0 0 18 18" fill="none" xmlns="http://www.w3.org/2000/svg">
<path d="M13.2099 11.6369C14.2992 10.1504 14.7871 8.30742 14.576 6.47666C14.3648 4.6459 13.4702 2.96238 12.0711 1.76289C10.672 0.563405 8.87159 -0.0635771 7.03006 0.00738022C5.18854 0.0783375 3.44171 0.842001 2.13905 2.14559C0.836395 3.44918 0.0739819 5.19656 0.00434234 7.03813C-0.0652972 8.87971 0.562973 10.6797 1.76346 12.0779C2.96394 13.4762 4.64811 14.3696 6.47902 14.5794C8.30993 14.7892 10.1526 14.3 11.6382 13.2096H11.6371C11.6709 13.2546 11.7069 13.2974 11.7474 13.339L16.0786 17.6702C16.2896 17.8813 16.5757 18 16.8742 18.0001C17.1726 18.0002 17.4588 17.8818 17.6699 17.6708C17.881 17.4599 17.9997 17.1737 17.9998 16.8753C17.9999 16.5768 17.8814 16.2906 17.6705 16.0795L13.3392 11.7482C13.299 11.7075 13.2558 11.6699 13.2099 11.6357V11.6369ZM13.5001 7.31237C13.5001 8.12492 13.3401 8.92952 13.0291 9.68022C12.7182 10.4309 12.2624 11.113 11.6878 11.6876C11.1133 12.2622 10.4312 12.7179 9.68048 13.0289C8.92978 13.3398 8.12518 13.4999 7.31262 13.4999C6.50007 13.4999 5.69547 13.3398 4.94477 13.0289C4.19407 12.7179 3.51196 12.2622 2.9374 11.6876C2.36284 11.113 1.90707 10.4309 1.59612 9.68022C1.28517 8.92952 1.12512 8.12492 1.12512 7.31237C1.12513 5.67134 1.77702 4.09753 2.9374 2.93715C4.09778 1.77676 5.6716 1.12487 7.31262 1.12487C8.95365 1.12487 10.5275 1.77676 11.6878 2.93715C12.8482 4.09753 13.5001 5.67134 13.5001 7.31237Z" fill="black"/>
</svg>
