<svg width="19" height="18" viewBox="0 0 19 18" fill="none" xmlns="http://www.w3.org/2000/svg">
<path d="M14.0252 11.6369C15.1145 10.1504 15.6024 8.30742 15.3913 6.47666C15.1802 4.6459 14.2856 2.96238 12.8864 1.76289C11.4873 0.563405 9.68693 -0.0635771 7.8454 0.00738022C6.00388 0.0783375 4.25705 0.842001 2.95439 2.14559C1.65173 3.44918 0.88932 5.19656 0.81968 7.03813C0.750041 8.87971 1.37831 10.6797 2.5788 12.0779C3.77928 13.4762 5.46345 14.3696 7.29436 14.5794C9.12527 14.7892 10.9679 14.3 12.4536 13.2096H12.4525C12.4862 13.2546 12.5222 13.2974 12.5627 13.339L16.894 17.6702C17.1049 17.8813 17.3911 18 17.6895 18.0001C17.9879 18.0002 18.2742 17.8818 18.4853 17.6708C18.6964 17.4599 18.815 17.1737 18.8151 16.8753C18.8152 16.5768 18.6968 16.2906 18.4858 16.0795L14.1546 11.7482C14.1144 11.7075 14.0711 11.6699 14.0252 11.6357V11.6369ZM14.3155 7.31237C14.3155 8.12492 14.1554 8.92952 13.8445 9.68022C13.5335 10.4309 13.0777 11.113 12.5032 11.6876C11.9286 12.2622 11.2465 12.7179 10.4958 13.0289C9.74511 13.3398 8.94052 13.4999 8.12796 13.4999C7.31541 13.4999 6.51081 13.3398 5.76011 13.0289C5.00941 12.7179 4.3273 12.2622 3.75274 11.6876C3.17818 11.113 2.72241 10.4309 2.41146 9.68022C2.10051 8.92952 1.94046 8.12492 1.94046 7.31237C1.94046 5.67134 2.59236 4.09753 3.75274 2.93715C4.91312 1.77676 6.48694 1.12487 8.12796 1.12487C9.76899 1.12487 11.3428 1.77676 12.5032 2.93715C13.6636 4.09753 14.3155 5.67134 14.3155 7.31237Z" fill="black"/>
</svg>
