<svg width="43" height="43" viewBox="0 0 43 43" fill="none" xmlns="http://www.w3.org/2000/svg">
<path d="M21.5 0C9.62573 0 0 9.62573 0 21.5C0 33.3743 9.62573 43 21.5 43C33.3743 43 43 33.3743 43 21.5C43 9.62573 33.3743 0 21.5 0ZM30.2456 17.6121C30.2545 17.7957 30.2568 17.9794 30.2568 18.1585C30.2568 23.7575 25.9993 30.2097 18.2101 30.2097C15.9084 30.2136 13.6547 29.5525 11.7197 28.3061C12.049 28.3464 12.3871 28.3621 12.7298 28.3621C14.7141 28.3621 16.5393 27.688 17.9883 26.5503C17.1053 26.5329 16.2497 26.2405 15.5407 25.7138C14.8318 25.1871 14.3048 24.4523 14.0332 23.6119C14.6674 23.7325 15.3207 23.7072 15.9436 23.538C14.9852 23.3442 14.1233 22.8249 13.504 22.0681C12.8848 21.3113 12.5464 20.3637 12.5461 19.3858V19.3343C13.1172 19.6501 13.7712 19.8427 14.4655 19.8651C13.5669 19.267 12.9309 18.3482 12.6873 17.2966C12.4438 16.245 12.6112 15.1401 13.1553 14.2079C14.219 15.5158 15.5455 16.5858 17.049 17.3485C18.5524 18.1112 20.1993 18.5497 21.883 18.6356C21.6689 17.727 21.761 16.7731 22.145 15.9223C22.529 15.0715 23.1833 14.3714 24.0063 13.9308C24.8292 13.4902 25.7746 13.3339 26.6956 13.486C27.6166 13.6382 28.4614 14.0904 29.0989 14.7723C30.0466 14.5848 30.9555 14.2372 31.7864 13.7443C31.4705 14.7256 30.8092 15.5588 29.9253 16.0892C30.7648 15.9881 31.5845 15.7624 32.3575 15.4195C31.7897 16.2703 31.0745 17.0129 30.2456 17.6121Z" fill="white"/>
</svg>
