<svg width="51" height="50" viewBox="0 0 51 50" fill="none" xmlns="http://www.w3.org/2000/svg">
<path d="M25.6406 0C11.8406 0 0.640625 11.2 0.640625 25C0.640625 38.8 11.8406 50 25.6406 50C39.4406 50 50.6406 38.8 50.6406 25C50.6406 11.2 39.4406 0 25.6406 0ZM25.6406 7.5C29.7906 7.5 33.1406 10.85 33.1406 15C33.1406 19.15 29.7906 22.5 25.6406 22.5C21.4906 22.5 18.1406 19.15 18.1406 15C18.1406 10.85 21.4906 7.5 25.6406 7.5ZM25.6406 43C22.6703 43 19.7461 42.2649 17.1288 40.8603C14.5116 39.4557 12.2826 37.4253 10.6406 34.95C10.7156 29.975 20.6406 27.25 25.6406 27.25C30.6156 27.25 40.5656 29.975 40.6406 34.95C38.9987 37.4253 36.7697 39.4557 34.1524 40.8603C31.5352 42.2649 28.611 43 25.6406 43Z" fill="#53B175"/>
</svg>
