<svg width="25" height="23" viewBox="0 0 25 23" fill="none" xmlns="http://www.w3.org/2000/svg">
<path d="M22.3214 0.5625H2.67857C1.19922 0.5625 0 1.61182 0 2.90625V20.0938C0 21.3882 1.19922 22.4375 2.67857 22.4375H22.3214C23.8008 22.4375 25 21.3882 25 20.0938V2.90625C25 1.61182 23.8008 0.5625 22.3214 0.5625ZM9.93956 11.798C4.87885 8.58433 4.93041 8.57622 3.57143 7.65073V6.42188C3.57143 5.77466 4.17104 5.25 4.91071 5.25H20.0893C20.829 5.25 21.4286 5.77466 21.4286 6.42188V7.65073C20.0686 8.57695 20.1209 8.58452 15.0604 11.7981C14.4745 12.1719 13.3086 13.0735 12.5 13.0625C11.6907 13.0731 10.5264 12.1725 9.93956 11.798ZM21.4286 9.63354V16.5781C21.4286 17.2253 20.829 17.75 20.0893 17.75H4.91071C4.17104 17.75 3.57143 17.2253 3.57143 16.5781V9.63354C4.35033 10.1606 5.43131 10.8658 8.88968 13.062C9.67997 13.5669 11.0088 14.6315 12.4998 14.625C14.0002 14.6315 15.3479 13.5487 16.1114 13.0612C19.5689 10.8657 20.6497 10.1605 21.4286 9.63354Z" fill="#FCFCFC"/>
</svg>
