<svg width="17" height="22" viewBox="0 0 17 22" fill="none" xmlns="http://www.w3.org/2000/svg">
<path d="M15.3014 15.7197C14.0901 15.5061 12.9529 15.1025 11.9223 14.5552C11.5984 14.3762 11.1987 14.3971 10.8859 14.6161L8.99771 16.2836C6.44513 14.4627 4.27819 11.4912 3.3984 8.36092L5.60703 7.06475C5.92155 6.83589 6.06806 6.46571 6.0205 6.10192C5.84887 4.94454 5.8684 3.73962 6.08199 2.52831C6.17576 1.99651 5.81074 1.47521 5.27894 1.38144L1.87151 0.780616C1.33971 0.686846 0.657909 0.810328 0.527673 1.54893C-1.08552 10.6978 5.18648 19.6428 14.3255 21.2543C15.0247 21.3776 15.4099 20.8058 15.5054 20.2641L16.1044 16.8665C16.1982 16.3347 15.8332 15.8134 15.3014 15.7197Z" fill="#FCFCFC"/>
</svg>
