<svg width="24" height="25" viewBox="0 0 24 25" fill="none" xmlns="http://www.w3.org/2000/svg">
<path d="M0.00171371 1.23786C0.00171371 1.01044 0.0919959 0.792333 0.252699 0.631523C0.413402 0.470713 0.631362 0.380371 0.85863 0.380371H1.60929C2.85524 0.380371 3.57163 1.19155 3.98637 2.00102C4.26916 2.55496 4.4731 3.23066 4.64277 3.81718H22.2867C22.5515 3.81726 22.8127 3.87875 23.0498 3.99681C23.2868 4.11488 23.4934 4.28632 23.6531 4.49767C23.8128 4.70903 23.9215 4.95455 23.9704 5.21497C24.0194 5.47539 24.0074 5.74363 23.9354 5.99863L21.3715 15.0451C21.1675 15.7629 20.7353 16.3945 20.1402 16.8442C19.5451 17.2938 18.8198 17.5371 18.0741 17.537H9.36952C8.61762 17.5372 7.8865 17.2901 7.28879 16.8336C6.69108 16.3771 6.25995 15.7366 6.06182 15.0108L4.96154 10.9721C4.95524 10.954 4.94952 10.9357 4.94441 10.9172L3.17744 4.91991L3.00606 4.34197C2.83468 3.74858 2.68386 3.2238 2.45764 2.78305C2.18514 2.25141 1.93492 2.09706 1.60757 2.09706H0.856916C0.629648 2.09706 0.411688 2.00672 0.250985 1.84591C0.0902817 1.6851 0 1.46699 0 1.23957L0.00171371 1.23786ZM6.59654 10.4541L7.71567 14.5632C7.81489 14.926 8.03053 15.246 8.32937 15.4741C8.62821 15.7022 8.99368 15.8256 9.36952 15.8254H18.0758C18.4485 15.8251 18.8108 15.7031 19.108 15.4782C19.4052 15.2532 19.621 14.9374 19.7228 14.5787L22.2867 5.53216H5.14835L6.59654 10.4524V10.4541Z" fill="white"/>
<path d="M12.0037 21.8243C12.0037 22.5065 11.7329 23.1608 11.2508 23.6433C10.7686 24.1257 10.1148 24.3967 9.43296 24.3967C8.75116 24.3967 8.09728 24.1257 7.61517 23.6433C7.13306 23.1608 6.86221 22.5065 6.86221 21.8243C6.86221 21.142 7.13306 20.4877 7.61517 20.0053C8.09728 19.5229 8.75116 19.2518 9.43296 19.2518C10.1148 19.2518 10.7686 19.5229 11.2508 20.0053C11.7329 20.4877 12.0037 21.142 12.0037 21.8243ZM10.2899 21.8243C10.2899 21.5969 10.1996 21.3788 10.0389 21.2179C9.87819 21.0571 9.66023 20.9668 9.43296 20.9668C9.20569 20.9668 8.98773 21.0571 8.82703 21.2179C8.66633 21.3788 8.57604 21.5969 8.57604 21.8243C8.57604 22.0517 8.66633 22.2698 8.82703 22.4306C8.98773 22.5914 9.20569 22.6818 9.43296 22.6818C9.66023 22.6818 9.87819 22.5914 10.0389 22.4306C10.1996 22.2698 10.2899 22.0517 10.2899 21.8243Z" fill="white"/>
<path d="M20.5729 21.8243C20.5729 22.5065 20.302 23.1608 19.8199 23.6433C19.3378 24.1257 18.6839 24.3967 18.0021 24.3967C17.3203 24.3967 16.6665 24.1257 16.1844 23.6433C15.7022 23.1608 15.4314 22.5065 15.4314 21.8243C15.4314 21.142 15.7022 20.4877 16.1844 20.0053C16.6665 19.5229 17.3203 19.2518 18.0021 19.2518C18.6839 19.2518 19.3378 19.5229 19.8199 20.0053C20.302 20.4877 20.5729 21.142 20.5729 21.8243ZM18.8591 21.8243C18.8591 21.5969 18.7688 21.3788 18.6081 21.2179C18.4474 21.0571 18.2294 20.9668 18.0021 20.9668C17.7749 20.9668 17.5569 21.0571 17.3962 21.2179C17.2355 21.3788 17.1452 21.5969 17.1452 21.8243C17.1452 22.0517 17.2355 22.2698 17.3962 22.4306C17.5569 22.5914 17.7749 22.6818 18.0021 22.6818C18.2294 22.6818 18.4474 22.5914 18.6081 22.4306C18.7688 22.2698 18.8591 22.0517 18.8591 21.8243Z" fill="white"/>
</svg>
